<svg id="Capa_1" data-name="Capa 1" xmlns="http://www.w3.org/2000/svg" xmlns:xlink="http://www.w3.org/1999/xlink" viewBox="0 0 330.44 347.47"><defs><style>.cls-1{mask:url(#mask);}.cls-2,.cls-4{mix-blend-mode:multiply;}.cls-2{fill:url(#linear-gradient);}.cls-3{mask:url(#mask-2);}.cls-4{fill:url(#linear-gradient-2);}.cls-5{fill:url(#radial-gradient);}.cls-6{fill:#fff;}.cls-7{fill:#211915;opacity:0.31;}.cls-8{fill:url(#radial-gradient-2);}.cls-9{mask:url(#mask-3);}.cls-10{fill:url(#linear-gradient-3);}.cls-11{mask:url(#mask-4);}.cls-12{fill:url(#linear-gradient-4);}.cls-13{font-size:62.34px;fill:#2f3a8b;font-family:Arial Black;}.cls-14{letter-spacing:-2px;}.cls-15{filter:url(#luminosity-noclip-4);}.cls-16{filter:url(#luminosity-noclip-3);}.cls-17{filter:url(#luminosity-noclip-2);}.cls-18{filter:url(#luminosity-noclip);}</style><filter id="luminosity-noclip" x="111.73" y="-8405" width="139.27" height="32766" filterUnits="userSpaceOnUse" color-interpolation-filters="sRGB"><feFlood flood-color="#fff" result="bg"/><feBlend in="SourceGraphic" in2="bg"/></filter><mask id="mask" x="111.73" y="-8405" width="139.27" height="32766" maskUnits="userSpaceOnUse"><g class="cls-18"/></mask><linearGradient id="linear-gradient" x1="181.37" y1="190.21" x2="181.37" y2="50.94" gradientUnits="userSpaceOnUse"><stop offset="0.56"/><stop offset="0.72" stop-color="#020202"/><stop offset="0.78" stop-color="#090909"/><stop offset="0.82" stop-color="#141414"/><stop offset="0.86" stop-color="#252525"/><stop offset="0.89" stop-color="#3b3b3b"/><stop offset="0.91" stop-color="#575757"/><stop offset="0.94" stop-color="#777"/><stop offset="0.96" stop-color="#9d9d9d"/><stop offset="0.98" stop-color="#c8c8c8"/><stop offset="1" stop-color="#f6f6f6"/><stop offset="1" stop-color="#fff"/></linearGradient><filter id="luminosity-noclip-2" x="116.98" y="-8405" width="125.46" height="32766" filterUnits="userSpaceOnUse" color-interpolation-filters="sRGB"><feFlood flood-color="#fff" result="bg"/><feBlend in="SourceGraphic" in2="bg"/></filter><mask id="mask-2" x="116.98" y="-8405" width="125.46" height="32766" maskUnits="userSpaceOnUse"><g class="cls-17"/></mask><linearGradient id="linear-gradient-2" x1="132.18" y1="76.62" x2="206.04" y2="140.43" gradientUnits="userSpaceOnUse"><stop offset="0" stop-color="#fff"/><stop offset="0.01" stop-color="#f6f6f6"/><stop offset="0.05" stop-color="#c8c8c8"/><stop offset="0.09" stop-color="#9d9d9d"/><stop offset="0.14" stop-color="#777"/><stop offset="0.2" stop-color="#575757"/><stop offset="0.25" stop-color="#3b3b3b"/><stop offset="0.32" stop-color="#252525"/><stop offset="0.4" stop-color="#141414"/><stop offset="0.49" stop-color="#090909"/><stop offset="0.63" stop-color="#020202"/><stop offset="1"/></linearGradient><radialGradient id="radial-gradient" cx="180.94" cy="152.1" r="112.05" gradientTransform="translate(0.3 -0.73) rotate(-0.06)" gradientUnits="userSpaceOnUse"><stop offset="0" stop-color="#f7f7f8"/><stop offset="0.25" stop-color="#f0f0f2"/><stop offset="0.61" stop-color="#dddee1"/><stop offset="1" stop-color="#c2c3c9"/></radialGradient><radialGradient id="radial-gradient-2" cx="164.26" cy="96.24" r="78.03" gradientUnits="userSpaceOnUse"><stop offset="0" stop-color="#009bdb"/><stop offset="0.35" stop-color="#0099d9"/><stop offset="0.5" stop-color="#0093d2"/><stop offset="0.62" stop-color="#0089c5"/><stop offset="0.71" stop-color="#007ab3"/><stop offset="0.8" stop-color="#00679c"/><stop offset="0.87" stop-color="#004f80"/><stop offset="0.94" stop-color="#00345e"/><stop offset="1" stop-color="#001438"/><stop offset="1" stop-color="#001337"/></radialGradient><filter id="luminosity-noclip-3" x="111.73" y="50.94" width="139.27" height="139.27" filterUnits="userSpaceOnUse" color-interpolation-filters="sRGB"><feFlood flood-color="#fff" result="bg"/><feBlend in="SourceGraphic" in2="bg"/></filter><mask id="mask-3" x="95.1" y="26.6" width="139.27" height="139.27" maskUnits="userSpaceOnUse"><g class="cls-16"><g transform="translate(-16.64 -24.34)"><g class="cls-1"><circle class="cls-2" cx="181.37" cy="120.58" r="69.63"/></g></g></g></mask><linearGradient id="linear-gradient-3" x1="164.73" y1="165.87" x2="164.73" y2="26.6" gradientUnits="userSpaceOnUse"><stop offset="0.56" stop-color="#fff"/><stop offset="0.94" stop-color="#fff"/><stop offset="1" stop-color="#fff"/></linearGradient><filter id="luminosity-noclip-4" x="116.98" y="55.34" width="125.46" height="105.14" filterUnits="userSpaceOnUse" color-interpolation-filters="sRGB"><feFlood flood-color="#fff" result="bg"/><feBlend in="SourceGraphic" in2="bg"/></filter><mask id="mask-4" x="100.34" y="31" width="125.46" height="105.14" maskUnits="userSpaceOnUse"><g class="cls-15"><g transform="translate(-16.64 -24.34)"><g class="cls-3"><path class="cls-4" d="M128.61,140.87A64.26,64.26,0,0,1,242.44,100a64.26,64.26,0,1,0-110.78,60.5A64.27,64.27,0,0,1,128.61,140.87Z"/></g></g></g></mask><linearGradient id="linear-gradient-4" x1="132.18" y1="76.62" x2="206.04" y2="140.43" gradientUnits="userSpaceOnUse"><stop offset="0" stop-color="#fff"/><stop offset="0.14" stop-color="#fff"/><stop offset="1" stop-color="#fff"/></linearGradient></defs><title>logo</title><path class="cls-5" d="M276.38,119a94.76,94.76,0,0,0-94.87-94.66H181a94.76,94.76,0,0,0-94.65,94.87c0,11.38,4.61,38.84,18.57,60.82,17.55,27.62,68.85,88.48,76.37,97.37V278l0.25-.3,0.25,0.3v-0.6c7.5-8.9,58.67-69.88,76.15-97.54C271.85,157.85,276.39,130.38,276.38,119Z" transform="translate(-16.64 -24.34)"/><path class="cls-6" d="M228.51,59.51a77.67,77.67,0,0,1-91.09,125.78A77.67,77.67,0,1,0,228.51,59.51Z" transform="translate(-16.64 -24.34)"/><path class="cls-7" d="M103.69,121.14A77.67,77.67,0,0,1,230.25,60.7,77.67,77.67,0,1,0,126.4,175.94,77.42,77.42,0,0,1,103.69,121.14Z" transform="translate(-16.64 -24.34)"/><circle class="cls-8" cx="164.26" cy="96.24" r="78.03"/><g class="cls-9"><circle class="cls-10" cx="164.73" cy="96.24" r="69.63"/></g><g class="cls-11"><path class="cls-12" d="M128.61,140.87A64.26,64.26,0,0,1,242.44,100a64.26,64.26,0,1,0-110.78,60.5A64.27,64.27,0,0,1,128.61,140.87Z" transform="translate(-16.64 -24.34)"/></g><path class="cls-6" d="M137.42,166.7V74.46h29.89q17,0,22.15,1.38a24.19,24.19,0,0,1,13.28,9q5.35,7,5.35,18,0,8.5-3.08,14.28a25.3,25.3,0,0,1-7.83,9.09,27,27,0,0,1-9.66,4.37q-6.67,1.32-19.32,1.32H156v34.8H137.42ZM156,90.06v26.18h10.19q11,0,14.72-1.45a12.23,12.23,0,0,0,5.82-4.53,12.4,12.4,0,0,0,2.11-7.17,11.92,11.92,0,0,0-3-8.31,12.89,12.89,0,0,0-7.49-4.09q-3.33-.63-13.4-0.63h-9Z" transform="translate(-16.64 -24.34)"/><path class="cls-6" d="M233.36,140.15H227a0.92,0.92,0,0,0-.75.39l-2.94-8.84H192.85l-2.94,8.84a0.92,0.92,0,0,0-.75-0.39h-6.35a0.92,0.92,0,0,0-.92.92v2a0.92,0.92,0,0,0,.92.92l4.78,1.2a3.56,3.56,0,0,0-1.61,3.24v11.65h3v6.58h9.11v-6.58H218v6.58h9.11v-6.58h3V148.47a3.56,3.56,0,0,0-1.61-3.24l4.78-1.2a0.92,0.92,0,0,0,.92-0.92v-2A0.92,0.92,0,0,0,233.36,140.15Zm-39.57,14.44s-3,0-4.07-4.86h8.12s3,0,4.07,4.86h-8.12ZM193.1,144.1l3-9h24l3,9h-30Zm29.28,10.49h-8.12c1.11-4.88,4.07-4.86,4.07-4.86h8.12C225.34,154.62,222.38,154.59,222.38,154.59Z" transform="translate(-16.64 -24.34)"/><text class="cls-13" transform="translate(0 328.36)">S<tspan class="cls-14" x="45.02" y="0">T</tspan><tspan x="87.9" y="0">OPCAR</tspan></text></svg>